<svg width="30" height="24" viewBox="0 0 30 24" fill="none" xmlns="http://www.w3.org/2000/svg">
<path fill-rule="evenodd" clip-rule="evenodd" d="M6.47801 0C6.62589 0.00253688 6.77601 0.00521103 6.92849 0.0079828C10.9794 0.0824919 13.3834 0.245982 14.3515 0.302968C19.1409 0.584656 21.5595 1.02809 22.6435 1.22597C24.4716 1.55966 25.6452 1.92878 26.5234 2.29296C27.3652 2.64211 28.9977 3.43808 29.2774 5.04872C29.306 5.21375 29.3804 5.74293 29.2188 6.41915C28.9672 7.47125 28.3404 8.25651 27.9599 8.71352C27.1462 9.69092 26.1757 10.4046 25.8761 10.6379C24.0628 12.0501 22.0317 13.0587 21.2694 13.4454C19.7016 14.2406 18.2205 14.8584 17.1711 15.2708C17.1651 15.2731 16.121 15.676 14.6246 16.1641C13.9043 16.399 13.3304 16.572 13.1003 16.6411C13.0977 16.6419 12.0093 16.9417 10.4969 17.2886C9.05534 17.6194 8.17596 17.7826 7.54172 17.8987C5.32561 18.3042 3.25209 18.5917 1.40407 18.7982L3.31848 11.7056C5.69015 11.629 7.3652 11.475 8.14709 11.408C10.3162 11.222 11.7794 10.9988 11.9136 10.9842C14.0675 10.7496 15.3833 10.5019 15.8728 10.4219C17.8018 10.1069 19.1721 9.76858 19.949 9.56178C19.9585 9.55924 20.4236 9.43193 20.9922 9.252C22.5369 8.76323 23.5604 8.29893 24.1837 7.98196C24.1837 7.98196 24.6886 7.71944 25.2128 7.36099C25.6067 7.09165 25.8547 6.87663 25.9849 6.75876C25.9884 6.75547 26.1587 6.59701 26.3272 6.39463C26.7376 5.90177 26.7927 5.57338 26.8061 5.45551L26.8061 5.465L26.8086 5.4464L26.8096 5.44635C26.8149 5.41647 26.833 5.31265 26.6227 5.08851C26.5602 5.02184 26.1659 4.60481 25.0837 4.16785C23.9828 3.72338 22.6903 3.42169 21.9747 3.26604C21.6073 3.18618 21.0026 3.07939 20.9179 3.06446C18.6192 2.65865 16.094 2.40773 14.0628 2.24932C14.0062 2.2449 12.4046 2.12369 9.96317 2.02494C8.27226 1.95654 6.84202 1.9238 5.96297 1.9082L6.47801 0ZM0.794435 21.0568C2.01829 20.9183 3.4067 20.729 4.93083 20.4697C5.37307 20.3944 7.81591 19.9874 10.8074 19.2184C12.9734 18.6616 14.4695 18.1544 15.5434 17.7763C16.0267 17.6061 16.6887 17.3645 17.4523 17.0487C17.6896 16.9609 17.8221 16.9097 17.8243 16.9089C18.9133 16.4809 20.45 15.8394 22.0769 15.0141C22.8532 14.6203 24.8644 13.615 26.7269 12.2114C26.1717 13.5302 25.2756 14.5554 24.5832 15.2368C23.3264 16.4735 21.7435 17.4425 21.614 17.5238C20.7955 18.0376 19.0665 19.0637 16.0492 20.2433C15.5439 20.4408 14.8346 20.6887 14.7285 20.7258C11.7228 21.7765 9.12453 22.3788 8.34846 22.5585C5.09429 23.3123 2.22534 23.7473 0 24L0.794435 21.0568Z"/>

    <style>
        path { fill: #000; }
        @media (prefers-color-scheme: dark) {
            path { fill: #FFF; }
        }
    </style>
</svg>
