<svg width="142" height="24" viewBox="0 0 142 24" fill="none" xmlns="http://www.w3.org/2000/svg">
<path fill-rule="evenodd" clip-rule="evenodd" d="M6.47801 0C6.62589 0.00253688 6.77601 0.00521103 6.92849 0.0079828C10.9794 0.0824919 13.3834 0.245982 14.3515 0.302968C19.1409 0.584656 21.5595 1.02809 22.6435 1.22597C24.4716 1.55966 25.6452 1.92878 26.5234 2.29296C27.3652 2.64211 28.9977 3.43808 29.2774 5.04872C29.306 5.21375 29.3804 5.74293 29.2188 6.41915C28.9672 7.47125 28.3404 8.25651 27.9599 8.71352C27.1462 9.69092 26.1757 10.4046 25.8761 10.6379C24.0628 12.0501 22.0317 13.0587 21.2694 13.4454C19.7016 14.2406 18.2205 14.8584 17.1711 15.2708C17.1651 15.2731 16.121 15.676 14.6246 16.1641C13.9043 16.399 13.3304 16.572 13.1003 16.6411C13.0977 16.6419 12.0093 16.9417 10.4969 17.2886C9.05534 17.6194 8.17596 17.7826 7.54172 17.8987C5.32561 18.3042 3.25209 18.5917 1.40407 18.7982L3.31848 11.7056C5.69015 11.629 7.3652 11.475 8.14709 11.408C10.3162 11.222 11.7794 10.9988 11.9136 10.9842C14.0675 10.7496 15.3833 10.5019 15.8728 10.4219C17.8018 10.1069 19.1721 9.76858 19.949 9.56178C19.9585 9.55924 20.4236 9.43193 20.9922 9.252C22.5369 8.76323 23.5604 8.29893 24.1837 7.98196C24.1837 7.98196 24.6886 7.71944 25.2128 7.36099C25.6067 7.09165 25.8547 6.87663 25.9849 6.75876C25.9884 6.75547 26.1587 6.59701 26.3272 6.39463C26.7376 5.90177 26.7927 5.57338 26.8061 5.45551L26.8061 5.465L26.8086 5.4464L26.8096 5.44635C26.8149 5.41647 26.833 5.31265 26.6227 5.08851C26.5602 5.02184 26.1659 4.60481 25.0837 4.16785C23.9828 3.72338 22.6903 3.42169 21.9747 3.26604C21.6073 3.18618 21.0026 3.07939 20.9179 3.06446C18.6192 2.65865 16.094 2.40773 14.0628 2.24932C14.0062 2.2449 12.4046 2.12369 9.96317 2.02494C8.27226 1.95654 6.84202 1.9238 5.96297 1.9082L6.47801 0ZM0.794435 21.0568C2.01829 20.9183 3.4067 20.729 4.93083 20.4697C5.37307 20.3944 7.81591 19.9874 10.8074 19.2184C12.9734 18.6616 14.4695 18.1544 15.5434 17.7763C16.0267 17.6061 16.6887 17.3645 17.4523 17.0487C17.6896 16.9609 17.8221 16.9097 17.8243 16.9089C18.9133 16.4809 20.45 15.8394 22.0769 15.0141C22.8532 14.6203 24.8644 13.615 26.7269 12.2114C26.1717 13.5302 25.2756 14.5554 24.5832 15.2368C23.3264 16.4735 21.7435 17.4425 21.614 17.5238C20.7955 18.0376 19.0665 19.0637 16.0492 20.2433C15.5439 20.4408 14.8346 20.6887 14.7285 20.7258C11.7228 21.7765 9.12453 22.3788 8.34846 22.5585C5.09429 23.3123 2.22534 23.7473 0 24L0.794435 21.0568Z" fill="#DBDBDB"/>
<path d="M39.1775 19.5V4.6H44.0375C45.6109 4.6 46.9775 4.92 48.1375 5.56C49.3109 6.18667 50.2175 7.06 50.8575 8.18C51.4975 9.28667 51.8175 10.5733 51.8175 12.04C51.8175 13.4933 51.4975 14.7867 50.8575 15.92C50.2175 17.04 49.3109 17.92 48.1375 18.56C46.9775 19.1867 45.6109 19.5 44.0375 19.5H39.1775ZM41.8975 17.1H44.0975C45.1109 17.1 45.9842 16.8933 46.7175 16.48C47.4642 16.0533 48.0442 15.4667 48.4575 14.72C48.8709 13.96 49.0775 13.0667 49.0775 12.04C49.0775 11 48.8709 10.1067 48.4575 9.36C48.0442 8.61333 47.4642 8.03333 46.7175 7.62C45.9842 7.20667 45.1109 7 44.0975 7H41.8975V17.1ZM59.0822 19.74C58.0156 19.74 57.0422 19.4933 56.1622 19C55.2956 18.5067 54.6022 17.8333 54.0822 16.98C53.5756 16.1267 53.3222 15.1533 53.3222 14.06C53.3222 12.9667 53.5756 11.9933 54.0822 11.14C54.6022 10.2867 55.2956 9.61333 56.1622 9.12C57.0289 8.62667 58.0022 8.38 59.0822 8.38C60.1489 8.38 61.1156 8.62667 61.9822 9.12C62.8489 9.61333 63.5356 10.2867 64.0422 11.14C64.5622 11.98 64.8222 12.9533 64.8222 14.06C64.8222 15.1533 64.5622 16.1267 64.0422 16.98C63.5222 17.8333 62.8289 18.5067 61.9622 19C61.0956 19.4933 60.1356 19.74 59.0822 19.74ZM59.0822 17.34C59.6689 17.34 60.1822 17.2 60.6222 16.92C61.0756 16.64 61.4289 16.2533 61.6822 15.76C61.9489 15.2533 62.0822 14.6867 62.0822 14.06C62.0822 13.42 61.9489 12.86 61.6822 12.38C61.4289 11.8867 61.0756 11.5 60.6222 11.22C60.1822 10.9267 59.6689 10.78 59.0822 10.78C58.4822 10.78 57.9556 10.9267 57.5022 11.22C57.0489 11.5 56.6889 11.8867 56.4222 12.38C56.1689 12.86 56.0422 13.42 56.0422 14.06C56.0422 14.6867 56.1689 15.2533 56.4222 15.76C56.6889 16.2533 57.0489 16.64 57.5022 16.92C57.9556 17.2 58.4822 17.34 59.0822 17.34ZM72.0491 19.74C70.9691 19.74 69.9958 19.4933 69.1291 19C68.2758 18.4933 67.6024 17.8133 67.1091 16.96C66.6158 16.0933 66.3691 15.12 66.3691 14.04C66.3691 12.96 66.6158 11.9933 67.1091 11.14C67.6024 10.2867 68.2758 9.61333 69.1291 9.12C69.9958 8.62667 70.9691 8.38 72.0491 8.38C72.8224 8.38 73.5424 8.52 74.2091 8.8C74.8758 9.06667 75.4491 9.44 75.9291 9.92C76.4224 10.3867 76.7758 10.9467 76.9891 11.6L74.6891 12.6C74.4891 12.0533 74.1491 11.6133 73.6691 11.28C73.2024 10.9467 72.6624 10.78 72.0491 10.78C71.4758 10.78 70.9624 10.92 70.5091 11.2C70.0691 11.48 69.7224 11.8667 69.4691 12.36C69.2158 12.8533 69.0891 13.42 69.0891 14.06C69.0891 14.7 69.2158 15.2667 69.4691 15.76C69.7224 16.2533 70.0691 16.64 70.5091 16.92C70.9624 17.2 71.4758 17.34 72.0491 17.34C72.6758 17.34 73.2224 17.1733 73.6891 16.84C74.1558 16.5067 74.4891 16.06 74.6891 15.5L76.9891 16.54C76.7758 17.1533 76.4291 17.7067 75.9491 18.2C75.4691 18.68 74.8958 19.06 74.2291 19.34C73.5624 19.6067 72.8358 19.74 72.0491 19.74ZM82.8571 19.74C82.0171 19.74 81.2837 19.5533 80.6571 19.18C80.0437 18.8067 79.5704 18.2867 79.2371 17.62C78.9171 16.9533 78.7571 16.1733 78.7571 15.28V8.62H81.3771V15.06C81.3771 15.5133 81.4637 15.9133 81.6371 16.26C81.8237 16.5933 82.0837 16.86 82.4171 17.06C82.7637 17.2467 83.1504 17.34 83.5771 17.34C84.0037 17.34 84.3837 17.2467 84.7171 17.06C85.0504 16.86 85.3104 16.5867 85.4971 16.24C85.6837 15.8933 85.7771 15.48 85.7771 15V8.62H88.3971V19.5H85.9171V17.36L86.1371 17.74C85.8837 18.4067 85.4637 18.9067 84.8771 19.24C84.3037 19.5733 83.6304 19.74 82.8571 19.74ZM95.7925 19.62C94.5659 19.62 93.6125 19.2867 92.9325 18.62C92.2659 17.94 91.9325 16.9867 91.9325 15.76V10.96H90.0525V8.62H90.2525C90.7859 8.62 91.1992 8.48 91.4925 8.2C91.7859 7.92 91.9325 7.51333 91.9325 6.98V6.14H94.5525V8.62H97.0525V10.96H94.5525V15.62C94.5525 15.98 94.6125 16.2867 94.7325 16.54C94.8659 16.7933 95.0659 16.9867 95.3325 17.12C95.6125 17.2533 95.9659 17.32 96.3925 17.32C96.4859 17.32 96.5925 17.3133 96.7125 17.3C96.8459 17.2867 96.9725 17.2733 97.0925 17.26V19.5C96.9059 19.5267 96.6925 19.5533 96.4525 19.58C96.2125 19.6067 95.9925 19.62 95.7925 19.62ZM104.317 19.74C103.25 19.74 102.277 19.4933 101.397 19C100.53 18.5067 99.8366 17.8333 99.3166 16.98C98.8099 16.1267 98.5566 15.1533 98.5566 14.06C98.5566 12.9667 98.8099 11.9933 99.3166 11.14C99.8366 10.2867 100.53 9.61333 101.397 9.12C102.263 8.62667 103.237 8.38 104.317 8.38C105.383 8.38 106.35 8.62667 107.217 9.12C108.083 9.61333 108.77 10.2867 109.277 11.14C109.797 11.98 110.057 12.9533 110.057 14.06C110.057 15.1533 109.797 16.1267 109.277 16.98C108.757 17.8333 108.063 18.5067 107.197 19C106.33 19.4933 105.37 19.74 104.317 19.74ZM104.317 17.34C104.903 17.34 105.417 17.2 105.857 16.92C106.31 16.64 106.663 16.2533 106.917 15.76C107.183 15.2533 107.317 14.6867 107.317 14.06C107.317 13.42 107.183 12.86 106.917 12.38C106.663 11.8867 106.31 11.5 105.857 11.22C105.417 10.9267 104.903 10.78 104.317 10.78C103.717 10.78 103.19 10.9267 102.737 11.22C102.283 11.5 101.923 11.8867 101.657 12.38C101.403 12.86 101.277 13.42 101.277 14.06C101.277 14.6867 101.403 15.2533 101.657 15.76C101.923 16.2533 102.283 16.64 102.737 16.92C103.19 17.2 103.717 17.34 104.317 17.34ZM112.043 23.5V8.62H114.503V10.78L114.263 10.24C114.637 9.65333 115.143 9.2 115.783 8.88C116.423 8.54667 117.163 8.38 118.003 8.38C119.03 8.38 119.957 8.63333 120.783 9.14C121.61 9.64667 122.263 10.3267 122.743 11.18C123.237 12.0333 123.483 12.9933 123.483 14.06C123.483 15.1133 123.243 16.0733 122.763 16.94C122.283 17.8067 121.63 18.4933 120.803 19C119.977 19.4933 119.037 19.74 117.983 19.74C117.197 19.74 116.47 19.5867 115.803 19.28C115.15 18.96 114.63 18.5067 114.243 17.92L114.663 17.4V23.5H112.043ZM117.683 17.34C118.283 17.34 118.817 17.2 119.283 16.92C119.75 16.64 120.11 16.2533 120.363 15.76C120.63 15.2667 120.763 14.7 120.763 14.06C120.763 13.42 120.63 12.86 120.363 12.38C120.11 11.8867 119.75 11.5 119.283 11.22C118.817 10.9267 118.283 10.78 117.683 10.78C117.11 10.78 116.59 10.92 116.123 11.2C115.67 11.48 115.31 11.8733 115.043 12.38C114.79 12.8733 114.663 13.4333 114.663 14.06C114.663 14.7 114.79 15.2667 115.043 15.76C115.31 16.2533 115.67 16.64 116.123 16.92C116.59 17.2 117.11 17.34 117.683 17.34ZM125.481 19.5V8.62H128.101V19.5H125.481ZM125.481 7.4V4.6H128.101V7.4H125.481ZM133.82 19.74C133.06 19.74 132.4 19.6133 131.84 19.36C131.28 19.1067 130.847 18.7467 130.54 18.28C130.233 17.8 130.08 17.2467 130.08 16.62C130.08 16.02 130.213 15.4867 130.48 15.02C130.747 14.54 131.16 14.14 131.72 13.82C132.28 13.5 132.987 13.2733 133.84 13.14L137.4 12.56V14.56L134.34 15.08C133.82 15.1733 133.433 15.34 133.18 15.58C132.927 15.82 132.8 16.1333 132.8 16.52C132.8 16.8933 132.94 17.1933 133.22 17.42C133.513 17.6333 133.873 17.74 134.3 17.74C134.847 17.74 135.327 17.6267 135.74 17.4C136.167 17.16 136.493 16.8333 136.72 16.42C136.96 16.0067 137.08 15.5533 137.08 15.06V12.26C137.08 11.7933 136.893 11.4067 136.52 11.1C136.16 10.78 135.68 10.62 135.08 10.62C134.52 10.62 134.02 10.7733 133.58 11.08C133.153 11.3733 132.84 11.7667 132.64 12.26L130.5 11.22C130.713 10.6467 131.047 10.1533 131.5 9.74C131.967 9.31333 132.513 8.98 133.14 8.74C133.767 8.5 134.447 8.38 135.18 8.38C136.073 8.38 136.86 8.54667 137.54 8.88C138.22 9.2 138.747 9.65333 139.12 10.24C139.507 10.8133 139.7 11.4867 139.7 12.26V19.5H137.22V17.64L137.78 17.6C137.5 18.0667 137.167 18.46 136.78 18.78C136.393 19.0867 135.953 19.3267 135.46 19.5C134.967 19.66 134.42 19.74 133.82 19.74Z" fill="#DBDBDB"/>
</svg>
