<svg width="60" height="40" viewBox="0 0 60 40" fill="none" xmlns="http://www.w3.org/2000/svg">
<path fill-rule="evenodd" clip-rule="evenodd" d="M13.2567 0C13.5593 0.00422813 13.8665 0.00868504 14.1786 0.0133047C22.4683 0.137486 27.388 0.40997 29.3692 0.504947C39.1703 0.974426 44.1197 1.71349 46.338 2.04328C50.0791 2.59944 52.4807 3.21463 54.2778 3.8216C56.0005 4.40352 59.3414 5.73013 59.9136 8.41453C59.9723 8.68959 60.1246 9.57155 59.7937 10.6986C59.279 12.4521 57.9963 13.7608 57.2177 14.5225C55.5525 16.1515 53.5663 17.341 52.9533 17.7298C49.2425 20.0835 45.0859 21.7645 43.5259 22.4089C40.3176 23.7344 37.2867 24.764 35.1391 25.4513C35.1269 25.4552 32.9903 26.1267 29.9281 26.9402C28.454 27.3317 27.2796 27.62 26.8087 27.7352C26.8032 27.7366 24.576 28.2361 21.481 28.8144C18.531 29.3656 16.7314 29.6376 15.4335 29.8311C10.8984 30.507 6.65512 30.9862 2.87331 31.3304L6.791 19.5093C11.6444 19.3817 15.0723 19.125 16.6723 19.0133C21.1112 18.7034 24.1055 18.3313 24.3802 18.3069C28.788 17.9159 31.4807 17.5031 32.4824 17.3699C36.4299 16.8449 39.234 16.281 40.824 15.9363C40.8433 15.9321 41.7951 15.7199 42.9588 15.42C46.1198 14.6054 48.2144 13.8315 49.4899 13.3033C49.4899 13.3033 50.5232 12.8657 51.5959 12.2683C52.402 11.8194 52.9095 11.4611 53.1758 11.2646C53.1832 11.2591 53.5316 10.995 53.8765 10.6577C54.7162 9.83628 54.829 9.28897 54.8564 9.09252L54.8565 9.10834L54.8615 9.07733L54.8635 9.07724C54.8745 9.02745 54.9114 8.85441 54.4812 8.48085C54.3532 8.36974 53.5463 7.67468 51.3317 6.94642C49.0789 6.20564 46.4337 5.70281 44.9693 5.44341C44.2176 5.3103 42.9801 5.13232 42.8067 5.10743C38.1027 4.43108 32.935 4.01288 28.7783 3.74886C28.6625 3.7415 25.3849 3.53949 20.3888 3.3749C16.9285 3.2609 14.0016 3.20633 12.2027 3.18033L13.2567 0ZM1.62574 35.0946C4.13026 34.8638 6.97152 34.5483 10.0905 34.1162C10.9955 33.9907 15.9946 33.3123 22.1164 32.0306C26.5489 31.1026 29.6107 30.2574 31.8083 29.6271C32.7973 29.3435 34.152 28.9408 35.7147 28.4145C36.2003 28.2682 36.4714 28.1828 36.4759 28.1814C38.7044 27.4681 41.8492 26.399 45.1785 25.0235C46.7672 24.3672 50.8829 22.6917 54.6942 20.3523C53.5583 22.5503 51.7245 24.2591 50.3074 25.3946C47.7354 27.4558 44.4962 29.0708 44.2312 29.2063C42.5562 30.0627 39.0181 31.7728 32.8433 33.7388C31.8093 34.068 30.3579 34.4812 30.1405 34.5431C23.9898 36.2941 18.6726 37.298 17.0844 37.5976C10.425 38.8539 4.55396 39.5789 0 40L1.62574 35.0946Z" fill="white"/>
</svg>
