<svg width="140" height="28" viewBox="0 0 140 28" fill="none" xmlns="http://www.w3.org/2000/svg">
<g clip-path="url(#clip0_8_4039)">
<path d="M61.411 22.9317V10.7538C61.411 10.6082 61.5297 10.49 61.6762 10.49H64.2201C64.3665 10.49 64.4851 10.6082 64.4851 10.7538V22.9317C64.4851 23.0774 64.3665 23.1956 64.2201 23.1956H61.6762C61.5297 23.1956 61.411 23.0774 61.411 22.9317ZM61.411 8.80157V6.05956C61.411 5.91383 61.5297 5.79565 61.6762 5.79565H64.2201C64.3665 5.79565 64.4851 5.91383 64.4851 6.05956V8.80157C64.4851 8.9473 64.3665 9.06534 64.2201 9.06534H61.6762C61.5297 9.06534 61.411 8.9473 61.411 8.80157Z" fill="#FFF8FF"/>
<path d="M78.0248 12.5103C77.6177 11.7863 77.0509 11.2223 76.3234 10.8169C75.596 10.4125 74.7632 10.2098 73.8245 10.2098C72.9169 10.2098 72.1231 10.4082 71.4425 10.8054C70.9175 11.1116 70.5077 11.5284 70.2108 12.0527V10.7538C70.2108 10.6081 70.0921 10.4899 69.9457 10.4899H67.5894C67.4429 10.4899 67.3243 10.6081 67.3243 10.7538V22.9316C67.3243 23.0773 67.4429 23.1955 67.5894 23.1955H70.1334C70.2799 23.1955 70.3984 23.0773 70.3984 22.9316V15.745C70.3984 15.1846 70.5077 14.7023 70.727 14.2969C70.9457 13.8923 71.2509 13.577 71.6421 13.3511C72.033 13.1255 72.4787 13.0124 72.9797 13.0124C73.496 13.0124 73.9454 13.1255 74.329 13.3511C74.7122 13.577 75.0132 13.8923 75.2325 14.2969C75.4512 14.7023 75.561 15.1846 75.561 15.745V22.9316C75.561 23.0773 75.6797 23.1955 75.8261 23.1955H78.3698C78.5162 23.1955 78.6349 23.0773 78.6349 22.9316V15.0209C78.6349 14.0715 78.4315 13.2343 78.0248 12.5103Z" fill="#FFF8FF"/>
<path d="M87.2163 20.673C87.9044 20.673 88.5104 20.5095 89.0349 20.1826C89.5588 19.8556 89.9733 19.4 90.2785 18.8163C90.5835 18.2324 90.736 17.5748 90.736 16.8428C90.736 16.0954 90.5835 15.4378 90.2785 14.8691C89.9733 14.301 89.5588 13.8495 89.0349 13.5146C88.5104 13.18 87.9044 13.0124 87.2163 13.0124C86.5121 13.0124 85.894 13.18 85.3624 13.5146C84.8305 13.8495 84.4121 14.301 84.1069 14.8691C83.8019 15.4378 83.6495 16.0954 83.6495 16.8428C83.6495 17.5748 83.8019 18.2324 84.1069 18.8163C84.4121 19.4 84.8305 19.8556 85.3624 20.1826C85.894 20.5095 86.5121 20.673 87.2163 20.673ZM87.2163 23.4758C85.9643 23.4758 84.8263 23.1877 83.8019 22.6116C82.777 22.0357 81.9637 21.2493 81.3615 20.2528C80.7591 19.2564 80.458 18.1196 80.458 16.8428C80.458 15.5661 80.7591 14.4296 81.3615 13.4329C81.9637 12.4365 82.7732 11.6501 83.7902 11.0741C84.8069 10.4981 85.9491 10.2098 87.2163 10.2098C88.4677 10.2098 89.6015 10.4981 90.6188 11.0741C91.6356 11.6501 92.4451 12.4324 93.0475 13.4211C93.6496 14.4103 93.951 15.5506 93.951 16.8428C93.951 18.1196 93.6458 19.2564 93.0358 20.2528C92.4256 21.2493 91.612 22.0357 90.5953 22.6116C89.5783 23.1877 88.4519 23.4758 87.2163 23.4758Z" fill="#FFF8FF"/>
<path d="M95.7434 22.9316V5.77916C95.7434 5.63343 95.8621 5.51526 96.0086 5.51526H98.5525C98.6989 5.51526 98.8175 5.63343 98.8175 5.77916V22.9316C98.8175 23.0774 98.6989 23.1955 98.5525 23.1955H96.0086C95.8621 23.1955 95.7434 23.0774 95.7434 22.9316Z" fill="#FFF8FF"/>
<path d="M108.783 19.5987C108.509 20.0815 108.126 20.459 107.634 20.7314C107.141 21.004 106.574 21.14 105.932 21.14C105.431 21.14 105.013 21.0117 104.677 20.7548C104.34 20.4979 104.172 20.1513 104.172 19.7154C104.172 19.264 104.321 18.8979 104.618 18.6178C104.915 18.3374 105.369 18.1429 105.979 18.0339L109.194 17.4902V18.0105C109.194 18.5867 109.057 19.1161 108.783 19.5987ZM111.599 12.37C111.154 11.6929 110.532 11.1636 109.734 10.7818C108.936 10.4004 108.013 10.2098 106.965 10.2098C106.104 10.2098 105.306 10.3499 104.571 10.63C103.836 10.9104 103.199 11.2959 102.659 11.7861C102.182 12.2196 101.818 12.7232 101.567 13.2961C101.511 13.4239 101.572 13.5736 101.698 13.6344L103.74 14.6226C103.869 14.6846 104.026 14.6359 104.09 14.5088C104.324 14.0391 104.661 13.6531 105.099 13.3509C105.607 13.0008 106.19 12.8256 106.847 12.8256C107.551 12.8256 108.118 13.0087 108.549 13.3744C108.979 13.7405 109.194 14.1958 109.194 14.7408V15.1518L105.393 15.7683C104.391 15.9242 103.562 16.1888 102.905 16.5625C102.248 16.9361 101.763 17.3996 101.45 17.9519C101.137 18.505 100.981 19.1316 100.981 19.8322C100.981 20.5641 101.161 21.2065 101.521 21.7589C101.88 22.3119 102.389 22.7362 103.046 23.0318C103.703 23.3275 104.477 23.4757 105.369 23.4757C106.073 23.4757 106.714 23.3784 107.293 23.1838C107.872 22.9893 108.388 22.7089 108.842 22.3428C109.025 22.1951 109.195 22.029 109.358 21.852V22.9316C109.358 23.0773 109.477 23.1953 109.623 23.1953H112.003C112.149 23.1953 112.268 23.0773 112.268 22.9316V14.7408C112.268 13.8379 112.045 13.0474 111.599 12.37Z" fill="#FFF8FF"/>
<path d="M124.826 18.8279C124.52 19.4042 124.094 19.8557 123.547 20.1826C122.999 20.5096 122.373 20.673 121.669 20.673C120.997 20.673 120.391 20.5096 119.851 20.1826C119.311 19.8557 118.889 19.4042 118.584 18.8279C118.279 18.2522 118.126 17.5901 118.126 16.8429C118.126 16.1111 118.279 15.453 118.584 14.8692C118.889 14.2853 119.311 13.83 119.851 13.503C120.391 13.1761 120.997 13.0125 121.669 13.0125C122.373 13.0125 122.999 13.1799 123.547 13.5147C124.094 13.8496 124.52 14.301 124.826 14.8692C125.131 15.4378 125.283 16.0953 125.283 16.8429C125.283 17.5901 125.131 18.2522 124.826 18.8279ZM127.618 13.4796C127.047 12.4832 126.276 11.6891 125.307 11.0973C124.336 10.5057 123.249 10.2099 122.045 10.2099C121.059 10.2099 120.191 10.4006 119.44 10.7818C118.927 11.0427 118.493 11.3796 118.126 11.7818V5.77916C118.126 5.63343 118.008 5.51526 117.861 5.51526H115.317C115.171 5.51526 115.052 5.63343 115.052 5.77916V22.9316C115.052 23.0774 115.171 23.1955 115.317 23.1955H117.673C117.82 23.1955 117.939 23.0774 117.939 22.9316V21.7552C118.351 22.2455 118.862 22.6372 119.475 22.927C120.25 23.2926 121.098 23.4758 122.022 23.4758C123.257 23.4758 124.36 23.1839 125.33 22.6C126.3 22.0158 127.067 21.2182 127.63 20.2061C128.193 19.194 128.475 18.0729 128.475 16.8429C128.475 15.5973 128.189 14.4762 127.618 13.4796Z" fill="#FFF8FF"/>
<path d="M135.149 23.4758C133.787 23.4758 132.603 23.1527 131.593 22.5066C130.654 21.9051 129.989 21.1047 129.599 20.1048C129.55 19.978 129.611 19.8339 129.734 19.7751L131.58 18.8942C131.711 18.8316 131.864 18.888 131.932 19.0162C132.249 19.6213 132.668 20.1036 133.189 20.4631C133.776 20.868 134.429 21.0701 135.149 21.0701C135.712 21.0701 136.157 20.9456 136.486 20.6964C136.814 20.4476 136.979 20.1206 136.979 19.7155C136.979 19.4667 136.912 19.2599 136.78 19.0966C136.646 18.933 136.466 18.7931 136.24 18.6762C136.013 18.5594 135.766 18.4623 135.5 18.3842L133.412 17.8003C132.333 17.4891 131.515 17.0142 130.96 16.3757C130.404 15.7374 130.127 14.9823 130.127 14.1101C130.127 13.3317 130.326 12.6505 130.725 12.0666C131.124 11.4827 131.679 11.0272 132.391 10.7002C133.103 10.3732 133.92 10.21 134.843 10.21C136.048 10.21 137.112 10.4983 138.035 11.0741C138.888 11.6068 139.514 12.3394 139.913 13.2714C139.968 13.4001 139.907 13.5496 139.779 13.6091L137.907 14.485C137.778 14.5454 137.621 14.4945 137.559 14.3662C137.335 13.8987 137.001 13.5176 136.556 13.2227C136.04 12.8803 135.461 12.7089 134.82 12.7089C134.304 12.7089 133.897 12.8257 133.6 13.059C133.303 13.2928 133.154 13.5963 133.154 13.9699C133.154 14.2036 133.216 14.4061 133.342 14.5772C133.467 14.7489 133.643 14.889 133.87 14.9978C134.096 15.1068 134.359 15.208 134.656 15.3013L136.697 15.9085C137.745 16.2201 138.555 16.6872 139.126 17.31C139.697 17.9327 139.982 18.6959 139.982 19.5988C139.982 20.3617 139.779 21.035 139.372 21.6189C138.966 22.203 138.402 22.6582 137.683 22.9853C136.963 23.3123 136.118 23.4758 135.149 23.4758Z" fill="#FFF8FF"/>
<path d="M58.1965 12.5103C57.7895 11.7863 57.2227 11.2223 56.4951 10.8169C55.7677 10.4125 54.9349 10.2099 53.9962 10.2099C53.0887 10.2099 52.2949 10.4083 51.6143 10.8054C51.1927 11.0515 50.8447 11.3682 50.5702 11.7548V5.77915C50.5702 5.63342 50.4516 5.51538 50.3052 5.51538H47.7611C47.6147 5.51538 47.4961 5.63342 47.4961 5.77915V22.9316C47.4961 23.0773 47.6147 23.1955 47.7611 23.1955H50.3052C50.4516 23.1955 50.5702 23.0773 50.5702 22.9316V15.745C50.5702 15.1846 50.6794 14.7023 50.8987 14.2969C51.1174 13.8923 51.4227 13.577 51.8139 13.3511C52.2048 13.1256 52.6506 13.0125 53.1515 13.0125C53.6677 13.0125 54.1172 13.1256 54.5008 13.3511C54.884 13.577 55.1849 13.8923 55.4042 14.2969C55.623 14.7023 55.7327 15.1846 55.7327 15.745V22.9316C55.7327 23.0773 55.8515 23.1955 55.9979 23.1955H58.5415C58.688 23.1955 58.8067 23.0773 58.8067 22.9316V15.0209C58.8067 14.0715 58.6033 13.2343 58.1965 12.5103Z" fill="#FFF8FF"/>
<path d="M41.4407 11.2843C41.3034 12.7345 40.0222 13.8134 38.5587 13.8134H34.7934V8.21548H38.6415C40.2816 8.21548 41.5983 9.62028 41.4407 11.2843ZM43.9266 19.842L39.3841 16.5107C42.164 16.1315 44.3001 13.7132 44.2013 10.822C44.0984 7.80886 41.5229 5.46045 38.4939 5.46045H32.148C32.0043 5.46045 31.8879 5.57629 31.8879 5.71928V22.7709C31.8879 22.9138 32.0043 23.0297 32.148 23.0297H34.6426C34.7863 23.0297 34.9027 22.9138 34.9027 22.7709V16.7751L42.4199 22.2876C43.2311 22.8308 44.1291 23.1317 45.0375 23.1947C45.1855 23.205 45.3096 23.0832 45.3096 22.9355V20.5388C45.3096 20.4116 45.2173 20.2996 45.0904 20.2838C44.6892 20.2342 44.2937 20.0877 43.9266 19.842Z" fill="#FFF8FF"/>
<path d="M13.468 24.9102C12.6596 25.4262 11.6946 25.4266 10.8866 24.91L6.47121 22.089C6.47121 22.089 6.47135 22.0889 6.47135 22.0886C6.71157 21.9981 6.94876 21.8986 7.18416 21.7943C7.24063 21.7692 7.29711 21.7437 7.35344 21.7179C7.58347 21.6122 7.81198 21.5021 8.03691 21.3837C8.05138 21.3759 8.06543 21.3675 8.08003 21.3598C8.29311 21.2465 8.50289 21.126 8.71074 21.0015C8.76488 20.969 8.81887 20.9368 8.87259 20.9036C9.08692 20.771 9.29917 20.6339 9.50744 20.4896C9.55689 20.4552 9.60455 20.4175 9.65606 20.3857C9.81267 20.2889 9.95482 20.1707 10.0985 20.0557C10.1627 20.0043 10.2282 19.9552 10.2926 19.9038C10.4916 19.7452 10.6871 19.5815 10.8787 19.4117C10.9167 19.378 10.9537 19.3429 10.9915 19.3088C11.0775 19.2311 11.1643 19.1543 11.2488 19.0742L11.245 19.0687C11.5665 18.7641 11.8803 18.4488 12.1773 18.1128C12.4744 18.4489 12.7882 18.7641 13.1096 19.0689L13.1058 19.0744C13.1901 19.1541 13.2766 19.2305 13.3623 19.3081C13.4004 19.3425 13.4379 19.378 13.4762 19.412C13.6676 19.5816 13.8631 19.7453 14.062 19.9038C14.2362 20.0425 14.5639 20.2897 14.7466 20.4175C14.7803 20.441 14.8131 20.466 14.847 20.4894C15.0554 20.6339 15.2679 20.7713 15.4826 20.904C15.5358 20.9368 15.5894 20.9688 15.643 21.0009C15.8521 21.1264 16.0632 21.2476 16.2778 21.3616C16.291 21.3686 16.3037 21.3763 16.3169 21.3831C16.5426 21.502 16.7715 21.6124 17.0023 21.7183C17.058 21.7438 17.1135 21.7691 17.1694 21.7937C17.4051 21.8982 17.6426 21.9979 17.8833 22.0886V22.089L13.468 24.9102ZM11.0114 3.90056C11.0326 3.74386 11.1207 3.60457 11.2543 3.5193L12.1773 2.92939L13.1001 3.5193C13.2339 3.60457 13.322 3.74413 13.3433 3.90097C13.4775 4.8938 13.5563 6.19934 13.5563 7.09292C13.5563 9.28601 13.084 11.3907 12.1773 13.2835C11.2704 11.3907 10.7981 9.28601 10.7981 7.09292C10.7981 6.19962 10.8769 4.89366 11.0114 3.90056ZM23.3466 4.90998C23.3466 4.90998 21.0112 6.17316 20.9909 6.18646L17.7309 4.09948C17.5426 3.97925 17.2972 4.12621 17.3182 4.34803C17.3992 5.20679 17.4406 6.52398 17.4526 6.95281C17.4551 7.0411 17.501 7.12171 17.5755 7.16956L20.5639 9.0901C20.6406 9.13945 20.6871 9.22404 20.6871 9.31493V19.772C20.6871 19.9298 20.5508 20.0518 20.3978 20.0391C20.3483 20.0287 20.2983 20.0202 20.2492 20.0089C20.2026 19.9984 20.1563 19.9874 20.1101 19.9763C19.9621 19.9408 19.8149 19.9023 19.6686 19.8602C19.6426 19.8528 19.6163 19.8462 19.5904 19.8386C19.4271 19.7905 19.2653 19.7372 19.1043 19.6813C19.0514 19.6629 18.9986 19.6436 18.9461 19.6242C18.8309 19.5821 18.716 19.5388 18.6025 19.4921C18.5485 19.4697 18.4937 19.4492 18.4398 19.4264C18.2931 19.3644 18.1479 19.2985 18.0037 19.2302C17.9373 19.1986 17.8715 19.1655 17.8056 19.1326C17.7167 19.0883 17.6284 19.0424 17.5404 18.9957C17.4691 18.9577 17.3977 18.9204 17.3271 18.8809C17.2001 18.8099 17.0744 18.736 16.9496 18.6599C16.8665 18.6091 16.7844 18.5557 16.7025 18.5028C16.6439 18.465 16.5858 18.4267 16.528 18.3879C16.4404 18.329 16.3529 18.2699 16.2665 18.2083C16.2394 18.1889 16.2127 18.1682 16.1854 18.149C15.9904 18.012 15.8045 17.8627 15.6197 17.7123C15.5988 17.6951 15.5777 17.6779 15.5568 17.6605C15.4617 17.5814 15.3672 17.5012 15.2741 17.4188C15.2694 17.4147 15.2649 17.4104 15.2602 17.4063C15.0664 17.2343 14.8777 17.0548 14.6933 16.8691C14.3861 16.5595 14.0927 16.2314 13.8146 15.8856C15.4065 13.2791 16.2459 10.2607 16.2459 7.09292C16.2459 5.78381 16.1022 3.7418 15.8366 2.54306C15.7605 2.19964 15.5488 1.90242 15.2515 1.71241L12.9039 0.212465C12.4612 -0.0704962 11.8935 -0.0704962 11.4508 0.212465L9.10317 1.71241C8.80579 1.90242 8.59422 2.19977 8.51804 2.54306C8.25207 3.74263 8.1084 5.78436 8.1084 7.09292C8.1084 10.2605 8.94807 13.2789 10.5401 15.8854C10.2627 16.2306 9.97025 16.5579 9.66377 16.8666C9.48072 17.0511 9.29298 17.2295 9.10083 17.4004C9.09325 17.407 9.08609 17.4137 9.07865 17.4203C8.9843 17.5038 8.88857 17.5852 8.79201 17.6654C8.72314 17.7226 8.65234 17.7773 8.58568 17.8367C8.45758 17.9509 8.31501 18.0471 8.17424 18.1453C8.14394 18.1662 8.11488 18.1891 8.08499 18.2104C7.99628 18.2736 7.90634 18.3346 7.81612 18.3951C7.7613 18.4318 7.70634 18.4677 7.65097 18.5034C7.54339 18.573 7.43512 18.641 7.32576 18.7067C7.22493 18.7671 7.12397 18.8268 7.02163 18.8839C6.94711 18.9256 6.87163 18.9654 6.79628 19.0054C6.71171 19.0501 6.62672 19.0938 6.54146 19.1363C6.47328 19.1703 6.40523 19.2046 6.3365 19.2372C6.19394 19.3045 6.05028 19.3691 5.90523 19.4302C5.84683 19.4548 5.78788 19.4774 5.72948 19.5011C5.61818 19.5461 5.50606 19.5886 5.39339 19.6297C5.33967 19.6493 5.28595 19.6692 5.23196 19.6878C5.07259 19.7428 4.91253 19.7948 4.75124 19.8422C4.7219 19.8507 4.69242 19.8585 4.66295 19.8666C4.51942 19.9057 4.3759 19.945 4.23113 19.9794C4.18182 19.9911 4.13264 20.003 4.08306 20.0143C4.04215 20.0235 4.00083 20.0302 3.95992 20.0389C3.80551 20.0533 3.66763 19.9309 3.66763 19.772V9.31397C3.66763 9.22363 3.71267 9.14028 3.78884 9.09133C4.3 8.7634 6.27658 7.49529 6.78058 7.16956C6.85468 7.12171 6.89793 7.04192 6.89862 6.95404C6.90372 6.28722 6.94477 5.31797 7.03609 4.34995C7.05703 4.12772 6.81226 3.97911 6.62355 4.09948L3.34931 6.19139C3.32672 6.17604 0.985537 4.90998 0.985537 4.90998C0.540771 4.67006 0 4.99059 0 5.49413V8.2408C0 8.50965 0.152618 8.72296 0.360744 8.83031C0.365565 8.83305 0.977961 9.16564 0.977961 9.16564V21.0297C0.977961 21.4856 1.21102 21.91 1.59642 22.1561L2.34972 22.6371C2.36226 22.6451 2.3759 22.6509 2.38857 22.6585C2.40248 22.6681 2.41529 22.6792 2.42961 22.6883L9.43361 27.1626C10.2799 27.7036 11.2287 27.9738 12.1773 27.9738C13.126 27.9738 14.0751 27.7036 14.9211 27.1629L21.9696 22.6599C21.9749 22.6563 21.9793 22.6518 21.9846 22.6484C21.9912 22.6443 21.9983 22.6413 22.005 22.6371L22.7581 22.1561C23.1435 21.91 23.3767 21.4854 23.3767 21.0296V9.15344C23.3767 9.15344 23.9665 8.83305 23.9714 8.83031C24.1795 8.72296 24.3321 8.50965 24.3321 8.2408V5.49413C24.3321 4.99059 23.7913 4.67006 23.3466 4.90998Z" fill="white"/>
</g>
<defs>
<clipPath id="clip0_8_4039">
<rect width="140" height="28" fill="white"/>
</clipPath>
</defs>
</svg>
